<svg width="154" height="43" viewBox="0 0 154 43" fill="none" xmlns="http://www.w3.org/2000/svg">
  <rect width="125" height="42.1647" rx="21.0824" fill="url(#paint0_linear_2476_8011)" />
  <path
    d="M21.712 14.1647H23.8071L29.2819 28H27.1078L25.7835 24.4424H19.6565L18.3322 28H16.2372L21.712 14.1647ZM25.1906 22.8612L22.7595 16.24H22.72L20.2494 22.8612H25.1906ZM32.9501 22.0113H38.0889V17.92H39.9468V28H38.0889V23.5134H32.9501V28H31.0922V17.92H32.9501V22.0113ZM45.9631 28.1581C44.8168 28.1581 43.9406 27.8814 43.3344 27.328C42.7415 26.7746 42.445 26.0433 42.445 25.1341C42.445 24.6466 42.5373 24.1986 42.7217 23.7901C42.9062 23.3685 43.2093 23.0127 43.6309 22.7228C44.0526 22.4198 44.5994 22.1892 45.2714 22.0311C45.9566 21.8598 46.7933 21.7741 47.7815 21.7741H49.086V21.28C49.086 19.936 48.3876 19.264 46.9909 19.264C46.398 19.264 45.8314 19.3365 45.2911 19.4814C44.7641 19.6132 44.2041 19.8701 43.6111 20.2522V18.6315C44.1646 18.3285 44.7377 18.1111 45.3307 17.9793C45.9368 17.8344 46.4902 17.7619 46.9909 17.7619C48.3744 17.7619 49.3758 18.0847 49.9951 18.7304C50.6276 19.3628 50.9438 20.4104 50.9438 21.8729V28H49.2836V26.6165H49.2441C48.8224 27.1962 48.3151 27.5981 47.7222 27.8221C47.1293 28.0461 46.5429 28.1581 45.9631 28.1581ZM46.398 26.656C46.7933 26.656 47.1556 26.5901 47.485 26.4584C47.8144 26.3266 48.0977 26.1487 48.3349 25.9247C48.5721 25.6875 48.7566 25.4108 48.8883 25.0946C49.0201 24.7784 49.086 24.4292 49.086 24.0471V23.1576H47.7815C47.1358 23.1576 46.5956 23.2038 46.1608 23.296C45.7391 23.3882 45.3966 23.5266 45.133 23.7111C44.8827 23.8824 44.6982 24.0932 44.5796 24.3435C44.4742 24.5807 44.4215 24.8442 44.4215 25.1341C44.4215 25.5689 44.5796 25.9313 44.8958 26.2212C45.2253 26.5111 45.726 26.656 46.398 26.656ZM53.5066 28.1581C53.309 28.1581 53.1113 28.1318 52.9137 28.0791C52.716 28.0264 52.6172 28.0066 52.6172 28.0198V26.3002C52.6699 26.3266 52.7292 26.3464 52.7951 26.3595C52.861 26.3727 52.9269 26.3859 52.9927 26.3991C53.0586 26.3991 53.1311 26.3991 53.2101 26.3991C53.5264 26.3991 53.7965 26.2673 54.0205 26.0038C54.2445 25.7271 54.4224 25.2856 54.5541 24.6795C54.6859 24.0602 54.7781 23.2631 54.8309 22.288C54.8967 21.3129 54.9297 20.1205 54.9297 18.7106V17.92H61.8078V28H59.9499V19.4221H56.6097V19.6988C56.6097 21.2273 56.5504 22.5318 56.4318 23.6122C56.3132 24.6795 56.1287 25.5492 55.8784 26.2212C55.628 26.8932 55.3052 27.3873 54.9099 27.7035C54.5146 28.0066 54.0469 28.1581 53.5066 28.1581ZM64.9663 28V17.92H66.8242V25.8259H66.8637L71.7456 17.92H74.0976V28H72.2397V20.0941H72.2002L67.3183 28H64.9663ZM84.7324 17.92V19.4221H81.234V28H79.3761V19.4221H75.8778V17.92H84.7324ZM86.5067 28V17.92H88.3646V25.8259H88.4041L93.286 17.92H95.638V28H93.7801V20.0941H93.7406L88.8587 28H86.5067ZM98.8018 17.92H100.66V22.3473L104.711 17.92H107.241L102.557 22.7228L107.814 28H105.186L100.66 23.1576V28H98.8018V17.92Z"
    fill="white" />
  <path
    d="M130.298 41.1002L146.65 39.8474C147.763 39.7622 148.246 38.395 147.439 37.6123L135.59 26.1132C134.76 25.3072 133.382 25.9004 133.397 27.057L133.483 33.3227C133.487 33.6338 133.381 33.9354 133.183 34.173L129.195 38.9587C128.459 39.8421 129.152 41.188 130.298 41.1002Z"
    fill="url(#paint1_linear_2476_8011)" />
  <defs>
    <linearGradient id="paint0_linear_2476_8011" x1="105.742" y1="73" x2="22.8584" y2="-43.9289"
      gradientUnits="userSpaceOnUse">
      <stop stop-color="#AABAFF" />
      <stop offset="0.463127" stop-color="#4000FF" />
    </linearGradient>
    <linearGradient id="paint1_linear_2476_8011" x1="115.207" y1="63.5" x2="167.296" y2="69.064"
      gradientUnits="userSpaceOnUse">
      <stop stop-color="#AABAFF" />
      <stop offset="0.463127" stop-color="#4000FF" />
    </linearGradient>
  </defs>
</svg>