<svg width="163" height="54" viewBox="0 0 163 54" fill="none" xmlns="http://www.w3.org/2000/svg">
  <path
    d="M15.2508 24.0147L0.328218 7.27733C-0.415107 6.44361 0.183565 5.12283 1.30685 5.11831L23.8572 5.02745C25.0137 5.02279 25.5963 6.40675 24.784 7.22953L18.5247 13.5704C18.3061 13.7917 18.1741 14.0831 18.1523 14.3919L17.5286 23.2363C17.4477 24.3839 16.0161 24.8732 15.2508 24.0147Z"
    fill="url(#paint0_linear_3674_738)" />
  <rect x="27.9043" width="135" height="54" rx="27" fill="url(#paint1_linear_3674_738)" />
  <path
    d="M53.1043 20.76L52.9843 23.72C52.9576 24.4133 52.9176 25.08 52.8643 25.72C52.8243 26.3467 52.7176 27.0533 52.5443 27.84C52.3976 28.48 52.2243 29.0667 52.0243 29.6C51.8376 30.1333 51.5776 30.68 51.2443 31.24H57.4043V20.76H53.1043ZM49.2843 31.24C49.7643 30.4133 50.111 29.66 50.3243 28.98C50.551 28.3 50.7043 27.7667 50.7843 27.38C50.8243 27.1667 50.8643 26.92 50.9043 26.64C50.9576 26.3467 51.0043 26.0133 51.0443 25.64C51.0843 25.2533 51.1176 24.8133 51.1443 24.32C51.171 23.8133 51.1976 23.2333 51.2243 22.58L51.3243 19H59.4043V31.24H61.0043V36.12H59.0443V33H50.0643V36.12H48.1043V31.24H49.2843ZM63.0004 33V22.8H64.8804V30.8H64.9204L69.8604 22.8H72.2404V33H70.3604V25H70.3204L65.3804 33H63.0004ZM78.3618 33.16C77.8151 33.16 77.3085 33.12 76.8418 33.04C76.3885 32.96 75.9951 32.8733 75.6618 32.78C75.3418 32.6733 75.0885 32.5867 74.9018 32.52C74.7285 32.44 74.6418 32.4 74.6418 32.4V30.76C74.9485 30.92 75.2951 31.0667 75.6818 31.2C76.0151 31.3067 76.4018 31.4067 76.8418 31.5C77.2951 31.5933 77.8018 31.64 78.3618 31.64C79.1218 31.64 79.6751 31.5 80.0218 31.22C80.3818 30.9267 80.5618 30.5267 80.5618 30.02C80.5618 29.5267 80.4018 29.14 80.0818 28.86C79.7751 28.58 79.2685 28.44 78.5618 28.44H76.8218V26.96H78.1618C78.8685 26.96 79.3751 26.8267 79.6818 26.56C80.0018 26.2933 80.1618 25.9667 80.1618 25.58C80.1618 25.1267 80.0018 24.78 79.6818 24.54C79.3751 24.2867 78.8685 24.16 78.1618 24.16C77.7618 24.16 77.3751 24.2 77.0018 24.28C76.6285 24.3467 76.3018 24.42 76.0218 24.5C75.6885 24.6067 75.3818 24.72 75.1018 24.84V23.2C75.3818 23.0933 75.6885 23 76.0218 22.92C76.3018 22.8533 76.6285 22.7933 77.0018 22.74C77.3751 22.6733 77.7618 22.64 78.1618 22.64C78.8818 22.64 79.4951 22.7067 80.0018 22.84C80.5085 22.9733 80.9218 23.16 81.2418 23.4C81.5618 23.64 81.7951 23.9267 81.9418 24.26C82.0885 24.5933 82.1618 24.9667 82.1618 25.38C82.1618 26.4333 81.6285 27.1867 80.5618 27.64C81.2151 27.8667 81.7085 28.2 82.0418 28.64C82.3885 29.08 82.5618 29.6067 82.5618 30.22C82.5618 30.6333 82.4751 31.02 82.3018 31.38C82.1285 31.7267 81.8618 32.0333 81.5018 32.3C81.1551 32.5667 80.7151 32.78 80.1818 32.94C79.6618 33.0867 79.0551 33.16 78.3618 33.16ZM87.9702 33.16C86.8102 33.16 85.9236 32.88 85.3102 32.32C84.7102 31.76 84.4102 31.02 84.4102 30.1C84.4102 29.6067 84.5036 29.1533 84.6902 28.74C84.8769 28.3133 85.1836 27.9533 85.6102 27.66C86.0369 27.3533 86.5902 27.12 87.2702 26.96C87.9636 26.7867 88.8102 26.7 89.8102 26.7H91.1302V26.2C91.1302 24.84 90.4236 24.16 89.0102 24.16C88.4102 24.16 87.8369 24.2333 87.2902 24.38C86.7569 24.5133 86.1902 24.7733 85.5902 25.16V23.52C86.1502 23.2133 86.7302 22.9933 87.3302 22.86C87.9436 22.7133 88.5036 22.64 89.0102 22.64C90.4102 22.64 91.4236 22.9667 92.0502 23.62C92.6902 24.26 93.0102 25.32 93.0102 26.8V33H91.3302V31.6H91.2902C90.8636 32.1867 90.3502 32.5933 89.7502 32.82C89.1502 33.0467 88.5569 33.16 87.9702 33.16ZM88.4102 31.64C88.8102 31.64 89.1769 31.5733 89.5102 31.44C89.8436 31.3067 90.1302 31.1267 90.3702 30.9C90.6102 30.66 90.7969 30.38 90.9302 30.06C91.0636 29.74 91.1302 29.3867 91.1302 29V28.1H89.8102C89.1569 28.1 88.6102 28.1467 88.1702 28.24C87.7436 28.3333 87.3969 28.4733 87.1302 28.66C86.8769 28.8333 86.6902 29.0467 86.5702 29.3C86.4636 29.54 86.4102 29.8067 86.4102 30.1C86.4102 30.54 86.5702 30.9067 86.8902 31.2C87.2236 31.4933 87.7302 31.64 88.4102 31.64ZM96.2035 33V22.8H98.0835V30.8H98.1235L103.064 22.8H105.444V33H103.564V25H103.524L98.5835 33H96.2035ZM104.064 18.4C104.024 19.2933 103.717 19.96 103.144 20.4C102.57 20.8267 101.864 21.04 101.024 21.04C100.597 21.04 100.197 20.9867 99.8235 20.88C99.4502 20.7733 99.1235 20.6133 98.8435 20.4C98.5635 20.1733 98.3302 19.8933 98.1435 19.56C97.9702 19.2267 97.8768 18.84 97.8635 18.4L99.2835 18.24C99.3502 18.72 99.5368 19.08 99.8435 19.32C100.164 19.56 100.557 19.68 101.024 19.68C101.49 19.68 101.87 19.56 102.164 19.32C102.457 19.08 102.637 18.72 102.704 18.24L104.064 18.4ZM110.525 26.94H115.725V22.8H117.605V33H115.725V28.46H110.525V33H108.645V22.8H110.525V26.94ZM125.333 33.16C124.533 33.16 123.813 33.04 123.173 32.8C122.533 32.56 121.986 32.2133 121.533 31.76C121.08 31.2933 120.733 30.7333 120.493 30.08C120.253 29.4267 120.133 28.6867 120.133 27.86C120.133 27.06 120.246 26.34 120.473 25.7C120.713 25.0467 121.04 24.4933 121.453 24.04C121.866 23.5867 122.353 23.24 122.913 23C123.473 22.76 124.08 22.64 124.733 22.64C126.186 22.64 127.313 23.0667 128.113 23.92C128.926 24.76 129.333 26.0533 129.333 27.8V28.32H122.133C122.2 29.2933 122.52 30.0933 123.093 30.72C123.666 31.3333 124.48 31.64 125.533 31.64C126.133 31.64 126.7 31.54 127.233 31.34C127.78 31.1267 128.246 30.8867 128.633 30.62V32.5C128.473 32.58 128.293 32.66 128.093 32.74C127.906 32.8067 127.68 32.8733 127.413 32.94C127.16 33.0067 126.86 33.06 126.513 33.1C126.18 33.14 125.786 33.16 125.333 33.16ZM124.733 24.16C124.386 24.16 124.053 24.2333 123.733 24.38C123.426 24.5133 123.153 24.7067 122.913 24.96C122.673 25.2 122.48 25.4933 122.333 25.84C122.2 26.1733 122.133 26.5333 122.133 26.92H127.333C127.333 26.04 127.1 25.36 126.633 24.88C126.166 24.4 125.533 24.16 124.733 24.16ZM131.848 22.8H133.648V24.26H133.688C133.941 23.9 134.221 23.6133 134.528 23.4C134.848 23.1733 135.161 23.0067 135.468 22.9C135.775 22.7933 136.068 22.7267 136.348 22.7C136.628 22.66 136.861 22.64 137.048 22.64C137.688 22.64 138.281 22.76 138.828 23C139.375 23.2267 139.848 23.5667 140.248 24.02C140.648 24.46 140.961 25.0067 141.188 25.66C141.415 26.3133 141.528 27.06 141.528 27.9C141.528 28.74 141.415 29.4867 141.188 30.14C140.961 30.7933 140.648 31.3467 140.248 31.8C139.848 32.24 139.375 32.58 138.828 32.82C138.281 33.0467 137.688 33.16 137.048 33.16C136.741 33.16 136.428 33.1267 136.108 33.06C135.801 33.0067 135.501 32.92 135.208 32.8C134.915 32.6667 134.641 32.5067 134.388 32.32C134.148 32.1333 133.941 31.9133 133.768 31.66H133.728V37.4H131.848V22.8ZM136.748 31.64C137.121 31.64 137.475 31.56 137.808 31.4C138.141 31.24 138.435 31.0067 138.688 30.7C138.941 30.38 139.141 29.9867 139.288 29.52C139.448 29.0533 139.528 28.5133 139.528 27.9C139.528 27.26 139.455 26.7067 139.308 26.24C139.175 25.7733 138.981 25.3867 138.728 25.08C138.475 24.7733 138.181 24.5467 137.848 24.4C137.515 24.24 137.148 24.16 136.748 24.16C136.348 24.16 135.961 24.2467 135.588 24.42C135.228 24.5933 134.908 24.84 134.628 25.16C134.348 25.48 134.128 25.8733 133.968 26.34C133.808 26.8067 133.728 27.3333 133.728 27.92C133.728 28.5067 133.808 29.0333 133.968 29.5C134.128 29.9533 134.341 30.34 134.608 30.66C134.888 30.98 135.208 31.2267 135.568 31.4C135.941 31.56 136.335 31.64 136.748 31.64Z"
    fill="white" />
  <defs>
    <linearGradient id="paint0_linear_3674_738" x1="-17.1784" y1="-3.86325" x2="-19.4243" y2="32.8061"
      gradientUnits="userSpaceOnUse">
      <stop offset="0.32647" stop-color="#006FFF" />
      <stop offset="0.935443" stop-color="#AAD6FF" />
    </linearGradient>
    <linearGradient id="paint1_linear_3674_738" x1="106.303" y1="-37.2608" x2="1.64846" y2="90.3146"
      gradientUnits="userSpaceOnUse">
      <stop offset="0.32647" stop-color="#006FFF" />
      <stop offset="0.935443" stop-color="#AAD6FF" />
    </linearGradient>
  </defs>
</svg>