<svg width="191" height="59" viewBox="0 0 191 59" fill="none" xmlns="http://www.w3.org/2000/svg">
  <path
    d="M179.288 21.7775L190.238 3.56118C190.811 2.60909 189.961 1.44492 188.848 1.65596L167.548 5.69384C166.4 5.91143 166.091 7.36682 167.056 8.0094L174.116 12.71C174.375 12.8824 174.562 13.1388 174.644 13.4334L176.877 21.4645C177.182 22.5624 178.697 22.7591 179.288 21.7775Z"
    fill="url(#paint0_linear_3674_737)" />
  <path
    d="M179.288 21.7775L190.238 3.56118C190.811 2.60909 189.961 1.44492 188.848 1.65596L167.548 5.69384C166.4 5.91143 166.091 7.36682 167.056 8.0094L174.116 12.71C174.375 12.8824 174.562 13.1388 174.644 13.4334L176.877 21.4645C177.182 22.5624 178.697 22.7591 179.288 21.7775Z"
    fill="url(#paint1_linear_3674_737)" />
  <path
    d="M0 33.9952C0 20.1853 11.1951 8.99023 25.005 8.99023H138.995C152.805 8.99023 164 20.1853 164 33.9952C164 47.8051 152.805 59.0002 138.995 59.0002H25.005C11.1951 59.0002 0 47.8051 0 33.9952Z"
    fill="url(#paint2_linear_3674_737)" />
  <path
    d="M25.88 35.0302C26.88 35.0302 27.6067 34.8102 28.06 34.3702C28.5267 33.9302 28.76 33.2702 28.76 32.3902C28.76 31.5102 28.5267 30.8502 28.06 30.4102C27.6067 29.9702 26.88 29.7502 25.88 29.7502H23.88V35.0302H25.88ZM21.88 27.9902H25.88C27.5867 27.9902 28.8467 28.3702 29.66 29.1302C30.4733 29.8902 30.88 30.9769 30.88 32.3902C30.88 33.8036 30.4733 34.8902 29.66 35.6502C28.8467 36.4102 27.5867 36.7902 25.88 36.7902H23.88V41.9902H21.88V27.9902ZM35.3003 42.1502C34.1403 42.1502 33.2536 41.8702 32.6403 41.3102C32.0403 40.7502 31.7403 40.0102 31.7403 39.0902C31.7403 38.5969 31.8336 38.1436 32.0203 37.7302C32.207 37.3036 32.5136 36.9436 32.9403 36.6502C33.367 36.3436 33.9203 36.1102 34.6003 35.9502C35.2936 35.7769 36.1403 35.6902 37.1403 35.6902H38.4603V35.1902C38.4603 33.8302 37.7536 33.1502 36.3403 33.1502C35.7403 33.1502 35.167 33.2236 34.6203 33.3702C34.087 33.5036 33.5203 33.7636 32.9203 34.1502V32.5102C33.4803 32.2036 34.0603 31.9836 34.6603 31.8502C35.2736 31.7036 35.8336 31.6302 36.3403 31.6302C37.7403 31.6302 38.7536 31.9569 39.3803 32.6102C40.0203 33.2502 40.3403 34.3102 40.3403 35.7902V41.9902H38.6603V40.5902H38.6203C38.1936 41.1769 37.6803 41.5836 37.0803 41.8102C36.4803 42.0369 35.887 42.1502 35.3003 42.1502ZM35.7403 40.6302C36.1403 40.6302 36.507 40.5636 36.8403 40.4302C37.1736 40.2969 37.4603 40.1169 37.7003 39.8902C37.9403 39.6502 38.127 39.3702 38.2603 39.0502C38.3936 38.7302 38.4603 38.3769 38.4603 37.9902V37.0902H37.1403C36.487 37.0902 35.9403 37.1369 35.5003 37.2302C35.0736 37.3236 34.727 37.4636 34.4603 37.6502C34.207 37.8236 34.0203 38.0369 33.9003 38.2902C33.7936 38.5302 33.7403 38.7969 33.7403 39.0902C33.7403 39.5302 33.9003 39.8969 34.2203 40.1902C34.5536 40.4836 35.0603 40.6302 35.7403 40.6302ZM46.4536 42.1502C45.9069 42.1502 45.4003 42.1102 44.9336 42.0302C44.4803 41.9502 44.0869 41.8636 43.7536 41.7702C43.4336 41.6636 43.1803 41.5769 42.9936 41.5102C42.8203 41.4302 42.7336 41.3902 42.7336 41.3902V39.7502C43.0403 39.9102 43.3869 40.0569 43.7736 40.1902C44.1069 40.2969 44.4936 40.3969 44.9336 40.4902C45.3869 40.5836 45.8936 40.6302 46.4536 40.6302C47.2136 40.6302 47.7669 40.4902 48.1136 40.2102C48.4736 39.9169 48.6536 39.5169 48.6536 39.0102C48.6536 38.5169 48.4936 38.1302 48.1736 37.8502C47.8669 37.5702 47.3603 37.4302 46.6536 37.4302H44.9136V35.9502H46.2536C46.9603 35.9502 47.4669 35.8169 47.7736 35.5502C48.0936 35.2836 48.2536 34.9569 48.2536 34.5702C48.2536 34.1169 48.0936 33.7702 47.7736 33.5302C47.4669 33.2769 46.9603 33.1502 46.2536 33.1502C45.8536 33.1502 45.4669 33.1902 45.0936 33.2702C44.7203 33.3369 44.3936 33.4102 44.1136 33.4902C43.7803 33.5969 43.4736 33.7102 43.1936 33.8302V32.1902C43.4736 32.0836 43.7803 31.9902 44.1136 31.9102C44.3936 31.8436 44.7203 31.7836 45.0936 31.7302C45.4669 31.6636 45.8536 31.6302 46.2536 31.6302C46.9736 31.6302 47.5869 31.6969 48.0936 31.8302C48.6003 31.9636 49.0136 32.1502 49.3336 32.3902C49.6536 32.6302 49.8869 32.9169 50.0336 33.2502C50.1803 33.5836 50.2536 33.9569 50.2536 34.3702C50.2536 35.4236 49.7203 36.1769 48.6536 36.6302C49.3069 36.8569 49.8003 37.1902 50.1336 37.6302C50.4803 38.0702 50.6536 38.5969 50.6536 39.2102C50.6536 39.6236 50.5669 40.0102 50.3936 40.3702C50.2203 40.7169 49.9536 41.0236 49.5936 41.2902C49.2469 41.5569 48.8069 41.7702 48.2736 41.9302C47.7536 42.0769 47.1469 42.1502 46.4536 42.1502ZM53.182 31.7902H54.982V33.2502H55.022C55.2754 32.8902 55.5554 32.6036 55.862 32.3902C56.182 32.1636 56.4954 31.9969 56.802 31.8902C57.1087 31.7836 57.402 31.7169 57.682 31.6902C57.962 31.6502 58.1954 31.6302 58.382 31.6302C59.022 31.6302 59.6154 31.7502 60.162 31.9902C60.7087 32.2169 61.182 32.5569 61.582 33.0102C61.982 33.4502 62.2954 33.9969 62.522 34.6502C62.7487 35.3036 62.862 36.0502 62.862 36.8902C62.862 37.7302 62.7487 38.4769 62.522 39.1302C62.2954 39.7836 61.982 40.3369 61.582 40.7902C61.182 41.2302 60.7087 41.5702 60.162 41.8102C59.6154 42.0369 59.022 42.1502 58.382 42.1502C58.0754 42.1502 57.762 42.1169 57.442 42.0502C57.1354 41.9969 56.8354 41.9102 56.542 41.7902C56.2487 41.6569 55.9754 41.4969 55.722 41.3102C55.482 41.1236 55.2754 40.9036 55.102 40.6502H55.062V46.3902H53.182V31.7902ZM58.082 40.6302C58.4554 40.6302 58.8087 40.5502 59.142 40.3902C59.4754 40.2302 59.7687 39.9969 60.022 39.6902C60.2754 39.3702 60.4754 38.9769 60.622 38.5102C60.782 38.0436 60.862 37.5036 60.862 36.8902C60.862 36.2502 60.7887 35.6969 60.642 35.2302C60.5087 34.7636 60.3154 34.3769 60.062 34.0702C59.8087 33.7636 59.5154 33.5369 59.182 33.3902C58.8487 33.2302 58.482 33.1502 58.082 33.1502C57.682 33.1502 57.2954 33.2369 56.922 33.4102C56.562 33.5836 56.242 33.8302 55.962 34.1502C55.682 34.4702 55.462 34.8636 55.302 35.3302C55.142 35.7969 55.062 36.3236 55.062 36.9102C55.062 37.4969 55.142 38.0236 55.302 38.4902C55.462 38.9436 55.6754 39.3302 55.942 39.6502C56.222 39.9702 56.542 40.2169 56.902 40.3902C57.2754 40.5502 57.6687 40.6302 58.082 40.6302ZM67.9956 42.1502C66.8356 42.1502 65.949 41.8702 65.3356 41.3102C64.7356 40.7502 64.4356 40.0102 64.4356 39.0902C64.4356 38.5969 64.529 38.1436 64.7156 37.7302C64.9023 37.3036 65.209 36.9436 65.6356 36.6502C66.0623 36.3436 66.6156 36.1102 67.2956 35.9502C67.989 35.7769 68.8356 35.6902 69.8356 35.6902H71.1556V35.1902C71.1556 33.8302 70.449 33.1502 69.0356 33.1502C68.4356 33.1502 67.8623 33.2236 67.3156 33.3702C66.7823 33.5036 66.2156 33.7636 65.6156 34.1502V32.5102C66.1756 32.2036 66.7556 31.9836 67.3556 31.8502C67.969 31.7036 68.529 31.6302 69.0356 31.6302C70.4356 31.6302 71.449 31.9569 72.0756 32.6102C72.7156 33.2502 73.0356 34.3102 73.0356 35.7902V41.9902H71.3556V40.5902H71.3156C70.889 41.1769 70.3756 41.5836 69.7756 41.8102C69.1756 42.0369 68.5823 42.1502 67.9956 42.1502ZM68.4356 40.6302C68.8356 40.6302 69.2023 40.5636 69.5356 40.4302C69.869 40.2969 70.1556 40.1169 70.3956 39.8902C70.6356 39.6502 70.8223 39.3702 70.9556 39.0502C71.089 38.7302 71.1556 38.3769 71.1556 37.9902V37.0902H69.8356C69.1823 37.0902 68.6356 37.1369 68.1956 37.2302C67.769 37.3236 67.4223 37.4636 67.1556 37.6502C66.9023 37.8236 66.7156 38.0369 66.5956 38.2902C66.489 38.5302 66.4356 38.7969 66.4356 39.0902C66.4356 39.5302 66.5956 39.8969 66.9156 40.1902C67.249 40.4836 67.7556 40.6302 68.4356 40.6302ZM81.0089 33.1502C80.3956 33.1502 79.8956 33.2836 79.5089 33.5502C79.1222 33.8036 78.8222 34.0702 78.6089 34.3502C78.3422 34.7102 78.1422 35.1169 78.0089 35.5702C77.8889 36.0236 77.8289 36.4636 77.8289 36.8902C77.8289 37.3169 77.8889 37.7569 78.0089 38.2102C78.1422 38.6636 78.3422 39.0702 78.6089 39.4302C78.9156 39.8436 79.2822 40.1502 79.7089 40.3502C80.1356 40.5369 80.5689 40.6302 81.0089 40.6302C81.4489 40.6302 81.8822 40.5369 82.3089 40.3502C82.7356 40.1502 83.1022 39.8436 83.4089 39.4302C83.6756 39.0702 83.8689 38.6636 83.9889 38.2102C84.1222 37.7569 84.1889 37.3169 84.1889 36.8902C84.1889 36.4502 84.1222 36.0102 83.9889 35.5702C83.8689 35.1302 83.6756 34.7236 83.4089 34.3502C83.0889 33.9102 82.7222 33.6036 82.3089 33.4302C81.8956 33.2436 81.4622 33.1502 81.0089 33.1502ZM85.1889 28.1502C84.8422 28.2436 84.5489 28.3036 84.3089 28.3302C84.0822 28.3436 83.8422 28.3636 83.5889 28.3902C83.2822 28.4169 83.0556 28.4369 82.9089 28.4502C82.7622 28.4502 82.6556 28.4502 82.5889 28.4502C82.5222 28.4502 82.4622 28.4569 82.4089 28.4702C82.3556 28.4702 82.2622 28.4702 82.1289 28.4702C81.6889 28.4969 81.3422 28.5236 81.0889 28.5502C80.8489 28.5636 80.6689 28.5836 80.5489 28.6102C80.0022 28.7036 79.5622 28.8502 79.2289 29.0502C78.8956 29.2502 78.6356 29.4502 78.4489 29.6502C78.2222 29.8902 78.0356 30.1569 77.8889 30.4502C77.7556 30.7436 77.6556 31.0502 77.5889 31.3702C77.5222 31.6769 77.4756 31.9902 77.4489 32.3102C77.4222 32.6302 77.4022 32.9369 77.3889 33.2302L77.3689 33.7302H77.4689C77.6422 33.4502 77.8622 33.1636 78.1289 32.8702C78.3956 32.5636 78.6622 32.3302 78.9289 32.1702C79.2356 31.9836 79.5956 31.8502 80.0089 31.7702C80.4222 31.6769 80.8222 31.6302 81.2089 31.6302C81.9289 31.6302 82.5956 31.7636 83.2089 32.0302C83.8222 32.2836 84.3489 32.6436 84.7889 33.1102C85.2289 33.5636 85.5689 34.1169 85.8089 34.7702C86.0622 35.4102 86.1889 36.1169 86.1889 36.8902C86.1889 37.6769 86.0622 38.3769 85.8089 38.9902C85.5689 39.6036 85.2556 40.1236 84.8689 40.5502C84.6956 40.7369 84.4889 40.9302 84.2489 41.1302C84.0089 41.3169 83.7289 41.4902 83.4089 41.6502C83.0889 41.7969 82.7289 41.9169 82.3289 42.0102C81.9289 42.1036 81.4889 42.1502 81.0089 42.1502C80.1822 42.1502 79.4356 42.0036 78.7689 41.7102C78.1022 41.4169 77.5622 41.0302 77.1489 40.5502C76.9622 40.3369 76.7756 40.0702 76.5889 39.7502C76.4156 39.4169 76.2556 39.0036 76.1089 38.5102C75.9756 38.0169 75.8622 37.4369 75.7689 36.7702C75.6756 36.1036 75.6289 35.3302 75.6289 34.4502C75.6289 33.7969 75.6556 33.1702 75.7089 32.5702C75.7622 31.9702 75.8556 31.4102 75.9889 30.8902C76.1356 30.3569 76.3222 29.8702 76.5489 29.4302C76.7889 28.9902 77.0889 28.6102 77.4489 28.2902C77.8222 27.9436 78.2089 27.6836 78.6089 27.5102C79.0222 27.3369 79.3889 27.2102 79.7089 27.1302C80.0289 27.0502 80.3356 26.9969 80.6289 26.9702C80.9222 26.9302 81.1956 26.8969 81.4489 26.8702C81.5689 26.8569 81.6889 26.8502 81.8089 26.8502C81.9422 26.8502 82.0689 26.8436 82.1889 26.8302C82.3756 26.8169 82.5689 26.8102 82.7689 26.8102C82.9689 26.7969 83.1622 26.7836 83.3489 26.7702C83.6556 26.7436 83.9489 26.7169 84.2289 26.6902C84.5222 26.6502 84.8422 26.5836 85.1889 26.4902V28.1502ZM93.2294 42.1502C92.4694 42.1502 91.7694 42.0236 91.1294 41.7702C90.4894 41.5169 89.936 41.1569 89.4694 40.6902C89.016 40.2236 88.6627 39.6702 88.4094 39.0302C88.156 38.3902 88.0294 37.6769 88.0294 36.8902C88.0294 36.1169 88.156 35.4102 88.4094 34.7702C88.6627 34.1169 89.016 33.5569 89.4694 33.0902C89.936 32.6236 90.4894 32.2636 91.1294 32.0102C91.7694 31.7569 92.4694 31.6302 93.2294 31.6302C93.9894 31.6302 94.6894 31.7569 95.3294 32.0102C95.9694 32.2636 96.516 32.6236 96.9694 33.0902C97.436 33.5569 97.796 34.1169 98.0494 34.7702C98.3027 35.4102 98.4294 36.1169 98.4294 36.8902C98.4294 37.6769 98.3027 38.3902 98.0494 39.0302C97.796 39.6702 97.436 40.2236 96.9694 40.6902C96.516 41.1569 95.9694 41.5169 95.3294 41.7702C94.6894 42.0236 93.9894 42.1502 93.2294 42.1502ZM93.2294 40.6302C93.6694 40.6302 94.0827 40.5436 94.4694 40.3702C94.856 40.1969 95.1894 39.9502 95.4694 39.6302C95.7627 39.2969 95.996 38.9036 96.1694 38.4502C96.3427 37.9836 96.4294 37.4636 96.4294 36.8902C96.4294 36.3169 96.3427 35.8036 96.1694 35.3502C95.996 34.8836 95.7627 34.4902 95.4694 34.1702C95.176 33.8369 94.836 33.5836 94.4494 33.4102C94.0627 33.2369 93.656 33.1502 93.2294 33.1502C92.7894 33.1502 92.376 33.2369 91.9894 33.4102C91.6027 33.5836 91.2627 33.8369 90.9694 34.1702C90.6894 34.4902 90.4627 34.8836 90.2894 35.3502C90.116 35.8036 90.0294 36.3169 90.0294 36.8902C90.0294 37.4636 90.116 37.9836 90.2894 38.4502C90.4627 38.9036 90.6894 39.2969 90.9694 39.6302C91.2627 39.9502 91.6027 40.1969 91.9894 40.3702C92.376 40.5436 92.7894 40.6302 93.2294 40.6302ZM108.125 31.7902V33.3102H104.585V41.9902H102.705V33.3102H99.1648V31.7902H108.125ZM115.56 37.9702C115.494 37.9836 115.374 38.0102 115.2 38.0502C115.04 38.0769 114.84 38.1102 114.6 38.1502C114.36 38.1769 114.094 38.2036 113.8 38.2302C113.507 38.2569 113.207 38.2702 112.9 38.2702C112.474 38.2702 112.007 38.2236 111.5 38.1302C111.007 38.0369 110.567 37.8302 110.18 37.5102C109.954 37.3369 109.774 37.1502 109.64 36.9502C109.52 36.7502 109.427 36.5569 109.36 36.3702C109.307 36.1702 109.267 35.9836 109.24 35.8102C109.227 35.6369 109.22 35.4836 109.22 35.3502V31.7902H111.1V34.7902C111.1 35.0302 111.127 35.3036 111.18 35.6102C111.234 35.9169 111.394 36.1769 111.66 36.3902C111.794 36.4969 111.98 36.5836 112.22 36.6502C112.474 36.7169 112.847 36.7502 113.34 36.7502C113.847 36.7502 114.294 36.7169 114.68 36.6502C115.08 36.5836 115.374 36.5302 115.56 36.4902V31.7902H117.44V41.9902H115.56V37.9702ZM120.643 41.9902V31.7902H122.523V39.7902H122.563L127.503 31.7902H129.883V41.9902H128.003V33.9902H127.963L123.023 41.9902H120.643ZM133.084 31.7902H134.964V36.2702L139.064 31.7902H141.624L136.884 36.6502L142.204 41.9902H139.544L134.964 37.0902V41.9902H133.084V31.7902Z"
    fill="white" />
  <path
    d="M0 33.9952C0 20.1853 11.1951 8.99023 25.005 8.99023H138.995C152.805 8.99023 164 20.1853 164 33.9952C164 47.8051 152.805 59.0002 138.995 59.0002H25.005C11.1951 59.0002 0 47.8051 0 33.9952Z"
    fill="url(#paint3_linear_3674_737)" />
  <path
    d="M25.88 35.0302C26.88 35.0302 27.6067 34.8102 28.06 34.3702C28.5267 33.9302 28.76 33.2702 28.76 32.3902C28.76 31.5102 28.5267 30.8502 28.06 30.4102C27.6067 29.9702 26.88 29.7502 25.88 29.7502H23.88V35.0302H25.88ZM21.88 27.9902H25.88C27.5867 27.9902 28.8467 28.3702 29.66 29.1302C30.4733 29.8902 30.88 30.9769 30.88 32.3902C30.88 33.8036 30.4733 34.8902 29.66 35.6502C28.8467 36.4102 27.5867 36.7902 25.88 36.7902H23.88V41.9902H21.88V27.9902ZM35.3003 42.1502C34.1403 42.1502 33.2536 41.8702 32.6403 41.3102C32.0403 40.7502 31.7403 40.0102 31.7403 39.0902C31.7403 38.5969 31.8336 38.1436 32.0203 37.7302C32.207 37.3036 32.5136 36.9436 32.9403 36.6502C33.367 36.3436 33.9203 36.1102 34.6003 35.9502C35.2936 35.7769 36.1403 35.6902 37.1403 35.6902H38.4603V35.1902C38.4603 33.8302 37.7536 33.1502 36.3403 33.1502C35.7403 33.1502 35.167 33.2236 34.6203 33.3702C34.087 33.5036 33.5203 33.7636 32.9203 34.1502V32.5102C33.4803 32.2036 34.0603 31.9836 34.6603 31.8502C35.2736 31.7036 35.8336 31.6302 36.3403 31.6302C37.7403 31.6302 38.7536 31.9569 39.3803 32.6102C40.0203 33.2502 40.3403 34.3102 40.3403 35.7902V41.9902H38.6603V40.5902H38.6203C38.1936 41.1769 37.6803 41.5836 37.0803 41.8102C36.4803 42.0369 35.887 42.1502 35.3003 42.1502ZM35.7403 40.6302C36.1403 40.6302 36.507 40.5636 36.8403 40.4302C37.1736 40.2969 37.4603 40.1169 37.7003 39.8902C37.9403 39.6502 38.127 39.3702 38.2603 39.0502C38.3936 38.7302 38.4603 38.3769 38.4603 37.9902V37.0902H37.1403C36.487 37.0902 35.9403 37.1369 35.5003 37.2302C35.0736 37.3236 34.727 37.4636 34.4603 37.6502C34.207 37.8236 34.0203 38.0369 33.9003 38.2902C33.7936 38.5302 33.7403 38.7969 33.7403 39.0902C33.7403 39.5302 33.9003 39.8969 34.2203 40.1902C34.5536 40.4836 35.0603 40.6302 35.7403 40.6302ZM46.4536 42.1502C45.9069 42.1502 45.4003 42.1102 44.9336 42.0302C44.4803 41.9502 44.0869 41.8636 43.7536 41.7702C43.4336 41.6636 43.1803 41.5769 42.9936 41.5102C42.8203 41.4302 42.7336 41.3902 42.7336 41.3902V39.7502C43.0403 39.9102 43.3869 40.0569 43.7736 40.1902C44.1069 40.2969 44.4936 40.3969 44.9336 40.4902C45.3869 40.5836 45.8936 40.6302 46.4536 40.6302C47.2136 40.6302 47.7669 40.4902 48.1136 40.2102C48.4736 39.9169 48.6536 39.5169 48.6536 39.0102C48.6536 38.5169 48.4936 38.1302 48.1736 37.8502C47.8669 37.5702 47.3603 37.4302 46.6536 37.4302H44.9136V35.9502H46.2536C46.9603 35.9502 47.4669 35.8169 47.7736 35.5502C48.0936 35.2836 48.2536 34.9569 48.2536 34.5702C48.2536 34.1169 48.0936 33.7702 47.7736 33.5302C47.4669 33.2769 46.9603 33.1502 46.2536 33.1502C45.8536 33.1502 45.4669 33.1902 45.0936 33.2702C44.7203 33.3369 44.3936 33.4102 44.1136 33.4902C43.7803 33.5969 43.4736 33.7102 43.1936 33.8302V32.1902C43.4736 32.0836 43.7803 31.9902 44.1136 31.9102C44.3936 31.8436 44.7203 31.7836 45.0936 31.7302C45.4669 31.6636 45.8536 31.6302 46.2536 31.6302C46.9736 31.6302 47.5869 31.6969 48.0936 31.8302C48.6003 31.9636 49.0136 32.1502 49.3336 32.3902C49.6536 32.6302 49.8869 32.9169 50.0336 33.2502C50.1803 33.5836 50.2536 33.9569 50.2536 34.3702C50.2536 35.4236 49.7203 36.1769 48.6536 36.6302C49.3069 36.8569 49.8003 37.1902 50.1336 37.6302C50.4803 38.0702 50.6536 38.5969 50.6536 39.2102C50.6536 39.6236 50.5669 40.0102 50.3936 40.3702C50.2203 40.7169 49.9536 41.0236 49.5936 41.2902C49.2469 41.5569 48.8069 41.7702 48.2736 41.9302C47.7536 42.0769 47.1469 42.1502 46.4536 42.1502ZM53.182 31.7902H54.982V33.2502H55.022C55.2754 32.8902 55.5554 32.6036 55.862 32.3902C56.182 32.1636 56.4954 31.9969 56.802 31.8902C57.1087 31.7836 57.402 31.7169 57.682 31.6902C57.962 31.6502 58.1954 31.6302 58.382 31.6302C59.022 31.6302 59.6154 31.7502 60.162 31.9902C60.7087 32.2169 61.182 32.5569 61.582 33.0102C61.982 33.4502 62.2954 33.9969 62.522 34.6502C62.7487 35.3036 62.862 36.0502 62.862 36.8902C62.862 37.7302 62.7487 38.4769 62.522 39.1302C62.2954 39.7836 61.982 40.3369 61.582 40.7902C61.182 41.2302 60.7087 41.5702 60.162 41.8102C59.6154 42.0369 59.022 42.1502 58.382 42.1502C58.0754 42.1502 57.762 42.1169 57.442 42.0502C57.1354 41.9969 56.8354 41.9102 56.542 41.7902C56.2487 41.6569 55.9754 41.4969 55.722 41.3102C55.482 41.1236 55.2754 40.9036 55.102 40.6502H55.062V46.3902H53.182V31.7902ZM58.082 40.6302C58.4554 40.6302 58.8087 40.5502 59.142 40.3902C59.4754 40.2302 59.7687 39.9969 60.022 39.6902C60.2754 39.3702 60.4754 38.9769 60.622 38.5102C60.782 38.0436 60.862 37.5036 60.862 36.8902C60.862 36.2502 60.7887 35.6969 60.642 35.2302C60.5087 34.7636 60.3154 34.3769 60.062 34.0702C59.8087 33.7636 59.5154 33.5369 59.182 33.3902C58.8487 33.2302 58.482 33.1502 58.082 33.1502C57.682 33.1502 57.2954 33.2369 56.922 33.4102C56.562 33.5836 56.242 33.8302 55.962 34.1502C55.682 34.4702 55.462 34.8636 55.302 35.3302C55.142 35.7969 55.062 36.3236 55.062 36.9102C55.062 37.4969 55.142 38.0236 55.302 38.4902C55.462 38.9436 55.6754 39.3302 55.942 39.6502C56.222 39.9702 56.542 40.2169 56.902 40.3902C57.2754 40.5502 57.6687 40.6302 58.082 40.6302ZM67.9956 42.1502C66.8356 42.1502 65.949 41.8702 65.3356 41.3102C64.7356 40.7502 64.4356 40.0102 64.4356 39.0902C64.4356 38.5969 64.529 38.1436 64.7156 37.7302C64.9023 37.3036 65.209 36.9436 65.6356 36.6502C66.0623 36.3436 66.6156 36.1102 67.2956 35.9502C67.989 35.7769 68.8356 35.6902 69.8356 35.6902H71.1556V35.1902C71.1556 33.8302 70.449 33.1502 69.0356 33.1502C68.4356 33.1502 67.8623 33.2236 67.3156 33.3702C66.7823 33.5036 66.2156 33.7636 65.6156 34.1502V32.5102C66.1756 32.2036 66.7556 31.9836 67.3556 31.8502C67.969 31.7036 68.529 31.6302 69.0356 31.6302C70.4356 31.6302 71.449 31.9569 72.0756 32.6102C72.7156 33.2502 73.0356 34.3102 73.0356 35.7902V41.9902H71.3556V40.5902H71.3156C70.889 41.1769 70.3756 41.5836 69.7756 41.8102C69.1756 42.0369 68.5823 42.1502 67.9956 42.1502ZM68.4356 40.6302C68.8356 40.6302 69.2023 40.5636 69.5356 40.4302C69.869 40.2969 70.1556 40.1169 70.3956 39.8902C70.6356 39.6502 70.8223 39.3702 70.9556 39.0502C71.089 38.7302 71.1556 38.3769 71.1556 37.9902V37.0902H69.8356C69.1823 37.0902 68.6356 37.1369 68.1956 37.2302C67.769 37.3236 67.4223 37.4636 67.1556 37.6502C66.9023 37.8236 66.7156 38.0369 66.5956 38.2902C66.489 38.5302 66.4356 38.7969 66.4356 39.0902C66.4356 39.5302 66.5956 39.8969 66.9156 40.1902C67.249 40.4836 67.7556 40.6302 68.4356 40.6302ZM81.0089 33.1502C80.3956 33.1502 79.8956 33.2836 79.5089 33.5502C79.1222 33.8036 78.8222 34.0702 78.6089 34.3502C78.3422 34.7102 78.1422 35.1169 78.0089 35.5702C77.8889 36.0236 77.8289 36.4636 77.8289 36.8902C77.8289 37.3169 77.8889 37.7569 78.0089 38.2102C78.1422 38.6636 78.3422 39.0702 78.6089 39.4302C78.9156 39.8436 79.2822 40.1502 79.7089 40.3502C80.1356 40.5369 80.5689 40.6302 81.0089 40.6302C81.4489 40.6302 81.8822 40.5369 82.3089 40.3502C82.7356 40.1502 83.1022 39.8436 83.4089 39.4302C83.6756 39.0702 83.8689 38.6636 83.9889 38.2102C84.1222 37.7569 84.1889 37.3169 84.1889 36.8902C84.1889 36.4502 84.1222 36.0102 83.9889 35.5702C83.8689 35.1302 83.6756 34.7236 83.4089 34.3502C83.0889 33.9102 82.7222 33.6036 82.3089 33.4302C81.8956 33.2436 81.4622 33.1502 81.0089 33.1502ZM85.1889 28.1502C84.8422 28.2436 84.5489 28.3036 84.3089 28.3302C84.0822 28.3436 83.8422 28.3636 83.5889 28.3902C83.2822 28.4169 83.0556 28.4369 82.9089 28.4502C82.7622 28.4502 82.6556 28.4502 82.5889 28.4502C82.5222 28.4502 82.4622 28.4569 82.4089 28.4702C82.3556 28.4702 82.2622 28.4702 82.1289 28.4702C81.6889 28.4969 81.3422 28.5236 81.0889 28.5502C80.8489 28.5636 80.6689 28.5836 80.5489 28.6102C80.0022 28.7036 79.5622 28.8502 79.2289 29.0502C78.8956 29.2502 78.6356 29.4502 78.4489 29.6502C78.2222 29.8902 78.0356 30.1569 77.8889 30.4502C77.7556 30.7436 77.6556 31.0502 77.5889 31.3702C77.5222 31.6769 77.4756 31.9902 77.4489 32.3102C77.4222 32.6302 77.4022 32.9369 77.3889 33.2302L77.3689 33.7302H77.4689C77.6422 33.4502 77.8622 33.1636 78.1289 32.8702C78.3956 32.5636 78.6622 32.3302 78.9289 32.1702C79.2356 31.9836 79.5956 31.8502 80.0089 31.7702C80.4222 31.6769 80.8222 31.6302 81.2089 31.6302C81.9289 31.6302 82.5956 31.7636 83.2089 32.0302C83.8222 32.2836 84.3489 32.6436 84.7889 33.1102C85.2289 33.5636 85.5689 34.1169 85.8089 34.7702C86.0622 35.4102 86.1889 36.1169 86.1889 36.8902C86.1889 37.6769 86.0622 38.3769 85.8089 38.9902C85.5689 39.6036 85.2556 40.1236 84.8689 40.5502C84.6956 40.7369 84.4889 40.9302 84.2489 41.1302C84.0089 41.3169 83.7289 41.4902 83.4089 41.6502C83.0889 41.7969 82.7289 41.9169 82.3289 42.0102C81.9289 42.1036 81.4889 42.1502 81.0089 42.1502C80.1822 42.1502 79.4356 42.0036 78.7689 41.7102C78.1022 41.4169 77.5622 41.0302 77.1489 40.5502C76.9622 40.3369 76.7756 40.0702 76.5889 39.7502C76.4156 39.4169 76.2556 39.0036 76.1089 38.5102C75.9756 38.0169 75.8622 37.4369 75.7689 36.7702C75.6756 36.1036 75.6289 35.3302 75.6289 34.4502C75.6289 33.7969 75.6556 33.1702 75.7089 32.5702C75.7622 31.9702 75.8556 31.4102 75.9889 30.8902C76.1356 30.3569 76.3222 29.8702 76.5489 29.4302C76.7889 28.9902 77.0889 28.6102 77.4489 28.2902C77.8222 27.9436 78.2089 27.6836 78.6089 27.5102C79.0222 27.3369 79.3889 27.2102 79.7089 27.1302C80.0289 27.0502 80.3356 26.9969 80.6289 26.9702C80.9222 26.9302 81.1956 26.8969 81.4489 26.8702C81.5689 26.8569 81.6889 26.8502 81.8089 26.8502C81.9422 26.8502 82.0689 26.8436 82.1889 26.8302C82.3756 26.8169 82.5689 26.8102 82.7689 26.8102C82.9689 26.7969 83.1622 26.7836 83.3489 26.7702C83.6556 26.7436 83.9489 26.7169 84.2289 26.6902C84.5222 26.6502 84.8422 26.5836 85.1889 26.4902V28.1502ZM93.2294 42.1502C92.4694 42.1502 91.7694 42.0236 91.1294 41.7702C90.4894 41.5169 89.936 41.1569 89.4694 40.6902C89.016 40.2236 88.6627 39.6702 88.4094 39.0302C88.156 38.3902 88.0294 37.6769 88.0294 36.8902C88.0294 36.1169 88.156 35.4102 88.4094 34.7702C88.6627 34.1169 89.016 33.5569 89.4694 33.0902C89.936 32.6236 90.4894 32.2636 91.1294 32.0102C91.7694 31.7569 92.4694 31.6302 93.2294 31.6302C93.9894 31.6302 94.6894 31.7569 95.3294 32.0102C95.9694 32.2636 96.516 32.6236 96.9694 33.0902C97.436 33.5569 97.796 34.1169 98.0494 34.7702C98.3027 35.4102 98.4294 36.1169 98.4294 36.8902C98.4294 37.6769 98.3027 38.3902 98.0494 39.0302C97.796 39.6702 97.436 40.2236 96.9694 40.6902C96.516 41.1569 95.9694 41.5169 95.3294 41.7702C94.6894 42.0236 93.9894 42.1502 93.2294 42.1502ZM93.2294 40.6302C93.6694 40.6302 94.0827 40.5436 94.4694 40.3702C94.856 40.1969 95.1894 39.9502 95.4694 39.6302C95.7627 39.2969 95.996 38.9036 96.1694 38.4502C96.3427 37.9836 96.4294 37.4636 96.4294 36.8902C96.4294 36.3169 96.3427 35.8036 96.1694 35.3502C95.996 34.8836 95.7627 34.4902 95.4694 34.1702C95.176 33.8369 94.836 33.5836 94.4494 33.4102C94.0627 33.2369 93.656 33.1502 93.2294 33.1502C92.7894 33.1502 92.376 33.2369 91.9894 33.4102C91.6027 33.5836 91.2627 33.8369 90.9694 34.1702C90.6894 34.4902 90.4627 34.8836 90.2894 35.3502C90.116 35.8036 90.0294 36.3169 90.0294 36.8902C90.0294 37.4636 90.116 37.9836 90.2894 38.4502C90.4627 38.9036 90.6894 39.2969 90.9694 39.6302C91.2627 39.9502 91.6027 40.1969 91.9894 40.3702C92.376 40.5436 92.7894 40.6302 93.2294 40.6302ZM108.125 31.7902V33.3102H104.585V41.9902H102.705V33.3102H99.1648V31.7902H108.125ZM115.56 37.9702C115.494 37.9836 115.374 38.0102 115.2 38.0502C115.04 38.0769 114.84 38.1102 114.6 38.1502C114.36 38.1769 114.094 38.2036 113.8 38.2302C113.507 38.2569 113.207 38.2702 112.9 38.2702C112.474 38.2702 112.007 38.2236 111.5 38.1302C111.007 38.0369 110.567 37.8302 110.18 37.5102C109.954 37.3369 109.774 37.1502 109.64 36.9502C109.52 36.7502 109.427 36.5569 109.36 36.3702C109.307 36.1702 109.267 35.9836 109.24 35.8102C109.227 35.6369 109.22 35.4836 109.22 35.3502V31.7902H111.1V34.7902C111.1 35.0302 111.127 35.3036 111.18 35.6102C111.234 35.9169 111.394 36.1769 111.66 36.3902C111.794 36.4969 111.98 36.5836 112.22 36.6502C112.474 36.7169 112.847 36.7502 113.34 36.7502C113.847 36.7502 114.294 36.7169 114.68 36.6502C115.08 36.5836 115.374 36.5302 115.56 36.4902V31.7902H117.44V41.9902H115.56V37.9702ZM120.643 41.9902V31.7902H122.523V39.7902H122.563L127.503 31.7902H129.883V41.9902H128.003V33.9902H127.963L123.023 41.9902H120.643ZM133.084 31.7902H134.964V36.2702L139.064 31.7902H141.624L136.884 36.6502L142.204 41.9902H139.544L134.964 37.0902V41.9902H133.084V31.7902Z"
    fill="white" />
  <defs>
    <linearGradient id="paint0_linear_3674_737" x1="164.45" y1="41.4" x2="148.997" y2="-2.51117"
      gradientUnits="userSpaceOnUse">
      <stop offset="0.00245224" stop-color="#C3EBFF" />
      <stop offset="0.580342" stop-color="#0099FF" />
    </linearGradient>
    <linearGradient id="paint1_linear_3674_737" x1="164.45" y1="41.4" x2="148.997" y2="-2.51117"
      gradientUnits="userSpaceOnUse">
      <stop offset="0.00245224" stop-color="#C3EBFF" />
      <stop offset="0.580342" stop-color="#0099FF" />
    </linearGradient>
    <linearGradient id="paint2_linear_3674_737" x1="164.16" y1="117.625" x2="39.9168" y2="-27.8231"
      gradientUnits="userSpaceOnUse">
      <stop offset="0.00759003" stop-color="#C3EBFF" />
      <stop offset="0.597531" stop-color="#0099FF" />
    </linearGradient>
    <linearGradient id="paint3_linear_3674_737" x1="164.16" y1="117.625" x2="39.9168" y2="-27.8231"
      gradientUnits="userSpaceOnUse">
      <stop offset="0.00759003" stop-color="#C3EBFF" />
      <stop offset="0.597531" stop-color="#0099FF" />
    </linearGradient>
  </defs>
</svg>